<?xml version="1.0" encoding="UTF-8"?>
<svg version="1.1" xmlns="http://www.w3.org/2000/svg" width="270" height="213">
<path d="M0 0 C0.99 0 1.98 0 3 0 C0.81245086 7.12788664 -2.08362214 13.6310403 -5.375 20.3125 C-6.4585853 22.54091167 -7.54055817 24.77010796 -8.62109375 27 C-9.17909668 28.15113281 -9.73709961 29.30226563 -10.31201172 30.48828125 C-13.07552059 36.23753083 -15.75904653 42.02324428 -18.4375 47.8125 C-18.98116211 48.98699707 -19.52482422 50.16149414 -20.08496094 51.37158203 C-21.18549899 53.75044735 -22.28559802 56.12951582 -23.38525391 58.50878906 C-25.95815878 64.07161636 -28.54220982 69.62925749 -31.125 75.1875 C-35.00898055 83.54973795 -38.88743506 91.91451539 -42.76171875 100.28125 C-43.60465238 102.10131955 -44.44758859 103.9213879 -45.29052734 105.74145508 C-46.92815809 109.27747953 -48.56510257 112.81382056 -50.20166016 116.3503418 C-52.46323644 121.23567407 -54.72960654 126.1187594 -57 131 C-57.57473053 132.23632172 -57.57473053 132.23632172 -58.16107178 133.49761963 C-59.27535351 135.89156454 -60.39293496 138.28393756 -61.51171875 140.67578125 C-61.84951859 141.40194138 -62.18731842 142.1281015 -62.53535461 142.87626648 C-64.88479678 147.88479678 -64.88479678 147.88479678 -66 149 C-67.34267413 149.08631874 -68.68974322 149.10706473 -70.03515625 149.09765625 C-70.84404297 149.09443359 -71.65292969 149.09121094 -72.48632812 149.08789062 C-73.33646484 149.07951172 -74.18660156 149.07113281 -75.0625 149.0625 C-75.91650391 149.05798828 -76.77050781 149.05347656 -77.65039062 149.04882812 C-79.76695663 149.03700373 -81.88348685 149.01906769 -84 149 C-89.71391498 138.19095806 -95.37909266 127.35772062 -101 116.5 C-105.38454946 108.03103567 -109.78960152 99.57399977 -114.2421875 91.140625 C-118.25728083 83.5289497 -122.22029267 75.89040074 -126.18603516 68.25292969 C-129.80324263 61.29062908 -133.44596478 54.34247269 -137.11010742 47.40478516 C-139.61153171 42.6603044 -142.09013108 37.90435139 -144.5546875 33.140625 C-145.01981499 32.24185135 -145.01981499 32.24185135 -145.49433899 31.32492065 C-147.02877547 28.35909298 -148.56134734 25.39233111 -150.09155273 22.42431641 C-153.00431554 16.78850939 -155.95761691 11.19958194 -159.14135742 5.71142578 C-160 4 -160 4 -160 2 C-154.06 2 -148.12 2 -142 2 C-135.66313658 13.45426171 -129.4461488 24.9371009 -123.64648438 36.67358398 C-119.68402089 44.68145727 -115.51714541 52.57404077 -111.3359375 60.46923828 C-108.91566431 65.05413446 -106.5211285 69.65245264 -104.125 74.25 C-103.62242676 75.21397705 -103.11985352 76.1779541 -102.60205078 77.17114258 C-101.57867176 79.13422299 -100.55539747 81.09735799 -99.53222656 83.06054688 C-96.52798988 88.82393273 -93.5210135 94.58589004 -90.51367188 100.34765625 C-87.93566176 105.28743449 -85.3602738 110.22855406 -82.7890625 115.171875 C-82.25925781 116.18958984 -81.72945313 117.20730469 -81.18359375 118.25585938 C-80.18272354 120.17858372 -79.18265426 122.10172533 -78.18359375 124.02539062 C-74.86706729 130.39367883 -71.4582446 136.70760049 -68 143 C-65.35236123 139.75508245 -63.64356813 136.38614673 -61.8828125 132.59375 C-61.58957092 131.96551331 -61.29632935 131.33727661 -60.99420166 130.69000244 C-60.03336911 128.62869794 -59.07916338 126.56439898 -58.125 124.5 C-57.45174221 123.05221925 -56.77807137 121.60463052 -56.10400391 120.15722656 C-54.38941873 116.47281943 -52.68017914 112.78596008 -50.97241211 109.09838867 C-49.51079527 105.94433475 -48.04440171 102.79251545 -46.578125 99.640625 C-43.90332529 93.8885111 -41.23399149 88.13388059 -38.56640625 82.37841797 C-37.0351815 79.0758793 -35.50232565 75.77410383 -33.96875 72.47265625 C-33.46166504 71.38098145 -32.95458008 70.28930664 -32.43212891 69.16455078 C-31.39281686 66.9272108 -30.35342866 64.68990619 -29.31396484 62.45263672 C-26.34006554 56.04902385 -23.37152538 49.64297454 -20.40921021 43.23399353 C-18.69852641 39.53312904 -16.98673994 35.83277492 -15.27496338 32.13241577 C-14.4340263 30.31368654 -13.59364123 28.49470196 -12.75384521 26.67544556 C-4.16932621 8.07937899 -4.16932621 8.07937899 0 0 Z " fill="#231F20" transform="translate(264,0)"/>
<path d="M0 0 C2.64 0 5.28 0 8 0 C8.47945068 0.93384521 8.95890137 1.86769043 9.45288086 2.82983398 C11.22699712 6.28411371 13.00361586 9.73710105 14.78100586 13.18969727 C15.55089896 14.6860886 16.32010682 16.1828327 17.08862305 17.67993164 C18.19140874 19.82791074 19.29662756 21.97462203 20.40234375 24.12109375 C20.74716293 24.79401962 21.09198212 25.4669455 21.44725037 26.16026306 C22.92818907 29.28242189 22.92818907 29.28242189 25 32 C29.95 22.1 34.9 12.2 40 2 C41.32 2 42.64 2 44 2 C44.55349121 3.11221924 45.10698242 4.22443848 45.67724609 5.37036133 C47.78119489 9.59670553 49.8880192 13.8216113 51.99560547 18.04614258 C52.89805245 19.85598802 53.79977455 21.66619515 54.70068359 23.47680664 C59.83767768 33.79958191 65.05383962 44.06961953 70.45187378 54.25849915 C73.9352785 60.84385475 77.28795625 67.48771643 80.59152222 74.16473389 C84.94201344 82.95340133 89.31938909 91.72309845 93.9375 100.375 C98.62950642 109.17442163 103.09875936 118.08335094 107.5625 127 C107.92455536 127.72161316 108.28661072 128.44322632 108.65963745 129.18670654 C109.69338487 131.24831862 110.7241765 133.31137876 111.75390625 135.375 C112.22348251 136.31117661 112.22348251 136.31117661 112.70254517 137.26626587 C113.97496337 139.82483293 115.09466147 142.28398441 116 145 C110.72 145 105.44 145 100 145 C100 144.67 100 144.34 100 144 C104.29 144 108.58 144 113 144 C112.35562988 142.74155273 111.71125977 141.48310547 111.04736328 140.18652344 C108.60484463 135.41568749 106.16358245 130.64420946 103.72265625 125.87255859 C102.67578631 123.82649098 101.62859749 121.78058649 100.58105469 119.73486328 C94.78105826 108.40761497 89.00128637 97.07204503 83.34524536 85.67205811 C80.76771431 80.48782034 78.10082278 75.35772802 75.375 70.25 C70.39921484 60.88317918 65.67600301 51.395171 60.95523071 41.89819336 C56.37602204 32.68834693 51.73914288 23.52061652 46.83007812 14.48046875 C45.13906684 11.33703683 43.76533524 8.48425177 43 5 C42.34 5 41.68 5 41 5 C40.773125 5.78246094 40.54625 6.56492187 40.3125 7.37109375 C38.58684145 12.1423342 36.31005036 16.55130166 34 21.0625 C33.10230248 22.82326957 32.20641005 24.58496083 31.3125 26.34765625 C30.91675781 27.12117432 30.52101562 27.89469238 30.11328125 28.69165039 C29.74589844 29.45340576 29.37851562 30.21516113 29 31 C28.5884668 31.83442627 28.17693359 32.66885254 27.75292969 33.52856445 C26.82994582 36.55819017 27.18109261 37.43891807 28.640625 40.1953125 C29.04651855 40.98333252 29.45241211 41.77135254 29.87060547 42.58325195 C30.55340576 43.84141724 30.55340576 43.84141724 31.25 45.125 C31.94246826 46.45180786 31.94246826 46.45180786 32.64892578 47.80541992 C34.08329149 50.54572614 35.5408166 53.27284682 37 56 C37.82748901 57.57579094 38.6531063 59.15256665 39.4765625 60.73046875 C41.09756459 63.8317747 42.72826121 66.92766063 44.3671875 70.01953125 C47.26973622 75.50004496 50.13523386 80.99966724 53 86.5 C56.63028011 93.46661739 60.27264947 100.42650917 63.9375 107.375 C67.99441915 115.07536231 72.03494508 122.78423825 76.0625 130.5 C76.63540771 131.5936084 77.20831543 132.6872168 77.79858398 133.81396484 C78.33040283 134.83441895 78.86222168 135.85487305 79.41015625 136.90625 C79.88590088 137.81697266 80.36164551 138.72769531 80.85180664 139.66601562 C82 142 82 142 83 145 C80.03 145 77.06 145 74 145 C64.69868179 127.20044797 55.44748431 109.37518781 46.20898438 91.54296875 C38.16399968 76.01570868 30.09917921 60.49906781 22 45 C13.70488156 60.51989902 5.83375137 76.24380934 -2 92 C-9.53907739 107.16350661 -17.08672808 122.31344138 -25.07714844 137.24609375 C-26.0788623 139.1498801 -27.03793626 141.07587253 -28 143 C-24.04 143.33 -20.08 143.66 -16 144 C-16 144.33 -16 144.66 -16 145 C-20.95 145 -25.9 145 -31 145 C-28.74995815 138.24987444 -28.74995815 138.24987444 -27.30149841 135.35575867 C-26.97518936 134.69894608 -26.64888031 134.04213348 -26.31268311 133.36541748 C-25.95998352 132.66563782 -25.60728394 131.96585815 -25.24389648 131.24487305 C-24.86791824 130.49101822 -24.49194 129.73716339 -24.10456848 128.96046448 C-22.86397335 126.47557962 -21.61765005 123.99361782 -20.37109375 121.51171875 C-19.4984105 119.76754643 -18.62602476 118.02322522 -17.75392151 116.27876282 C-15.92297571 112.61843459 -14.08935516 108.95946334 -12.25366211 105.30151367 C-9.92558104 100.66219464 -7.60265589 96.02031943 -5.28161526 91.37747478 C-3.47713228 87.76878402 -1.67054574 84.1611496 0.13670158 80.55384254 C0.99217791 78.8460277 1.84720113 77.13798579 2.7017231 75.42969322 C3.51573969 73.80315681 4.33082989 72.17715721 5.147048 70.55172443 C5.93265124 68.98639859 6.7154596 67.41966651 7.49527836 65.85145092 C9.45630827 61.93636479 11.49322421 58.09756816 13.69064331 54.30947876 C14.1222045 53.54978948 14.5537657 52.79010019 14.9984045 52.00739002 C15.81757437 50.57517138 16.65785409 49.15473361 17.52284336 47.74971294 C19.6325194 44.04772937 19.6325194 44.04772937 19.67109394 39.89612865 C18.51032138 36.5096986 16.93954393 33.41049591 14.89453125 30.48046875 C11.33551033 25.1064592 8.4569304 19.40775491 5.5 13.6875 C4.96028564 12.67800293 4.42057129 11.66850586 3.86450195 10.62841797 C3.36265381 9.68240723 2.86080566 8.73639648 2.34375 7.76171875 C1.89193359 6.91569092 1.44011719 6.06966309 0.97460938 5.19799805 C0 3 0 3 0 0 Z " fill="#231F20" transform="translate(32,3)"/>
<path d="M0 0 C4.62 0 9.24 0 14 0 C12.875 5.625 12.875 5.625 9.9375 8.8125 C9.38964844 9.41707031 8.84179688 10.02164063 8.27734375 10.64453125 C7.85582031 11.09183594 7.43429688 11.53914062 7 12 C9.31 12.33 11.62 12.66 14 13 C14 13.99 14 14.98 14 16 C9.38 16 4.76 16 0 16 C1.13617735 10.31911326 2.28325294 9.09795189 6 5 C3.03 4.505 3.03 4.505 0 4 C0 2.68 0 1.36 0 0 Z " fill="#000000" transform="translate(46,166)"/>
<path d="M0 0 C0.70125 0.01417969 1.4025 0.02835938 2.125 0.04296875 C3.176875 0.05263672 3.176875 0.05263672 4.25 0.0625 C6.125 0.23046875 6.125 0.23046875 8.125 1.23046875 C7.795 2.55046875 7.465 3.87046875 7.125 5.23046875 C5.145 5.23046875 3.165 5.23046875 1.125 5.23046875 C2.094375 5.70484375 3.06375 6.17921875 4.0625 6.66796875 C7.125 8.23046875 7.125 8.23046875 8.125 9.23046875 C8.3125 11.66796875 8.3125 11.66796875 8.125 14.23046875 C6.125 16.23046875 6.125 16.23046875 3.9609375 16.42578125 C3.14882813 16.40257812 2.33671875 16.379375 1.5 16.35546875 C0.68273437 16.33742187 -0.13453125 16.319375 -0.9765625 16.30078125 C-1.60304687 16.27757812 -2.22953125 16.254375 -2.875 16.23046875 C-3.535 14.91046875 -4.195 13.59046875 -4.875 12.23046875 C-4.215 11.57046875 -3.555 10.91046875 -2.875 10.23046875 C-0.895 10.89046875 1.085 11.55046875 3.125 12.23046875 C0.80643083 10.68475597 -1.38138429 9.43428323 -3.875 8.23046875 C-4 5.35546875 -4 5.35546875 -3.875 2.23046875 C-1.875 0.23046875 -1.875 0.23046875 0 0 Z " fill="#000000" transform="translate(255.875,165.76953125)"/>
<path d="M0 0 C1.65 0 3.3 0 5 0 C6.0044134 2.2898234 7.00367612 4.5816599 8 6.875 C8.28617188 7.52597656 8.57234375 8.17695313 8.8671875 8.84765625 C11 13.7734375 11 13.7734375 11 16 C9.35 16 7.7 16 6 16 C5.67 15.34 5.34 14.68 5 14 C1.97065509 13.34227572 1.97065509 13.34227572 -1 13 C-1.33 13.99 -1.66 14.98 -2 16 C-3.32 16 -4.64 16 -6 16 C-5.37183502 12.05050296 -4.1354471 8.80107972 -2.4375 5.1875 C-1.98246094 4.21167969 -1.52742187 3.23585937 -1.05859375 2.23046875 C-0.70925781 1.49441406 -0.35992187 0.75835937 0 0 Z M2 6 C1.67 7.32 1.34 8.64 1 10 C1.99 9.67 2.98 9.34 4 9 C3.34 8.01 2.68 7.02 2 6 Z " fill="#000000" transform="translate(7,166)"/>
<path d="M0 0 C1.65 0 3.3 0 5 0 C6.0044134 2.2898234 7.00367612 4.5816599 8 6.875 C8.28617188 7.52597656 8.57234375 8.17695313 8.8671875 8.84765625 C11 13.7734375 11 13.7734375 11 16 C9.35 15.67 7.7 15.34 6 15 C6 14.34 6 13.68 6 13 C3.69 13 1.38 13 -1 13 C-1.33 13.99 -1.66 14.98 -2 16 C-3.32 16 -4.64 16 -6 16 C-4.25192871 10.53262809 -2.34205919 5.24175152 0 0 Z M2 5 C1.67 6.65 1.34 8.3 1 10 C1.99 10 2.98 10 4 10 C3.67 8.35 3.34 6.7 3 5 C2.67 5 2.34 5 2 5 Z " fill="#000000" transform="translate(212,166)"/>
<path d="M0 0 C4.29 0 8.58 0 13 0 C12.08160162 4.59199188 11.65998007 5.89491863 8.9375 9.3125 C8.38964844 10.00988281 7.84179688 10.70726562 7.27734375 11.42578125 C6.85582031 11.94527344 6.43429688 12.46476563 6 13 C8.64 13 11.28 13 14 13 C14 13.99 14 14.98 14 16 C9.38 16 4.76 16 0 16 C1.13617735 10.31911326 2.28325294 9.09795189 6 5 C3.03 4.505 3.03 4.505 0 4 C0 2.68 0 1.36 0 0 Z " fill="#000000" transform="translate(89,166)"/>
<path d="M0 0 C2.64465038 3.1254959 3.84414715 6.08788267 5 10 C6.53521956 7.69717067 7.58357909 5.82137765 8.625 3.3125 C9.07875 2.219375 9.5325 1.12625 10 0 C10.66 0 11.32 0 12 0 C13.32 3.63 14.64 7.26 16 11 C17.32 7.37 18.64 3.74 20 0 C20.66 0 21.32 0 22 0 C20.41078475 5.36095277 18.81027062 10.70843973 17 16 C16.34 16 15.68 16 15 16 C13.68 12.04 12.36 8.08 11 4 C9.35 7.96 7.7 11.92 6 16 C4 15 4 15 2.9296875 12.3828125 C2.58164063 11.30773437 2.23359375 10.23265625 1.875 9.125 C1.52179687 8.05507812 1.16859375 6.98515625 0.8046875 5.8828125 C0 3 0 3 0 0 Z " fill="#000000" transform="translate(2,191)"/>
<path d="M0 0 C1.32 0 2.64 0 4 0 C4 3.96 4 7.92 4 12 C5.98 12 7.96 12 10 12 C10 13.32 10 14.64 10 16 C6.7 16 3.4 16 0 16 C0 10.72 0 5.44 0 0 Z " fill="#000000" transform="translate(133,166)"/>
<path d="M0 0 C1.60875 -0.04125 3.2175 -0.0825 4.875 -0.125 C5.77992188 -0.14820313 6.68484375 -0.17140625 7.6171875 -0.1953125 C10 0 10 0 12 2 C12.04443347 3.99950636 12.03920815 6.00038436 12 8 C12.185625 8.9075 12.37125 9.815 12.5625 10.75 C13 13 13 13 12 15 C9.11788698 15.96070434 7.30149956 16.10581883 4.3125 16.0625 C2.1778125 16.0315625 2.1778125 16.0315625 0 16 C0 10.72 0 5.44 0 0 Z M1 1 C1 2.98 1 4.96 1 7 C3.64 7 6.28 7 9 7 C9.66 5.68 10.32 4.36 11 3 C9.23863645 0.81668311 9.23863645 0.81668311 7.0546875 0.8046875 C4.02734375 0.90234375 4.02734375 0.90234375 1 1 Z M1 8 C1 9.98 1 11.96 1 14 C2.45742463 14.08096803 3.91612807 14.13917774 5.375 14.1875 C6.59316406 14.23970703 6.59316406 14.23970703 7.8359375 14.29296875 C8.55007812 14.19628906 9.26421875 14.09960938 10 14 C10.66 13.01 11.32 12.02 12 11 C11.009245 9.33358994 11.009245 9.33358994 9 8 C6.28153765 7.72654521 3.74322801 7.86508715 1 8 Z " fill="#000000" transform="translate(218,191)"/>
<path d="M0 0 C2.59952849 0.57448144 3.50436059 1.38232372 5.12109375 3.46875 C6.21554921 7.06481794 6.44075849 8.76548757 4.87109375 12.21875 C3.12109375 14.46875 3.12109375 14.46875 0.12109375 16.46875 C-3.21826899 16.28985557 -5.85495157 16.08312281 -8.75390625 14.34375 C-10.55057968 11.34929428 -10.81906811 8.93936229 -10.87890625 5.46875 C-8.38064639 0.13155848 -5.39889429 -0.072835 0 0 Z M-8.31640625 3.65625 C-10.10419903 6.31522339 -10.10419903 6.31522339 -9.81640625 9.09375 C-8.51832452 12.38222372 -7.20045543 13.85202705 -4.00390625 15.34375 C-0.93283058 15.52440151 0.65802307 14.19955642 3.12109375 12.46875 C4.49881137 11.30399938 4.49881137 11.30399938 4.43359375 8.09375 C4.4745804 4.51347483 4.4745804 4.51347483 2.49609375 2.53125 C-1.89069995 0.56873703 -4.65961546 0.37451468 -8.31640625 3.65625 Z " fill="#000000" transform="translate(190.87890625,190.53125)"/>
<path d="M0 0 C9.18762089 -0.48355899 9.18762089 -0.48355899 12.625 1.5625 C14.52641491 4.93319007 14.47647608 7.18819135 14 11 C12.23984869 14.1850357 11.50109084 14.83296972 8 16 C5.36 16 2.72 16 0 16 C0 10.72 0 5.44 0 0 Z M1 1 C1 5.29 1 9.58 1 14 C6.59667067 14.5248398 6.59667067 14.5248398 11.5 12.3125 C13.31567651 9.51333204 13.65420677 8.27103386 13 5 C11.60720318 2.52277007 11.60720318 2.52277007 9 1 C6.24146096 0.66834359 3.79575714 0.81361619 1 1 Z " fill="#000000" transform="translate(112,191)"/>
<path d="M0 0 C1.32 0 2.64 0 4 0 C4 5.28 4 10.56 4 16 C2.68 16 1.36 16 0 16 C0 10.72 0 5.44 0 0 Z " fill="#000000" transform="translate(173,166)"/>
<path d="M0 0 C0.99 0 1.98 0 3 0 C4.03271642 2.09836004 5.05083717 4.20390891 6.0625 6.3125 C6.63097656 7.48425781 7.19945312 8.65601563 7.78515625 9.86328125 C9 13 9 13 8 16 C7.34 14.35 6.68 12.7 6 11 C3.03 11 0.06 11 -3 11 C-3.66 12.65 -4.32 14.3 -5 16 C-6.39211215 11.82366356 -4.9535579 10.21039485 -3.0625 6.3125 C-2.49660156 5.13300781 -1.93070313 3.95351562 -1.34765625 2.73828125 C-0.90292969 1.83464844 -0.45820312 0.93101562 0 0 Z M1 2 C-1.2013866 5.80427492 -1.2013866 5.80427492 -2 10 C0.31 10 2.62 10 5 10 C3.73025028 5.58477891 3.73025028 5.58477891 1 2 Z " fill="#000000" transform="translate(48,191)"/>
<path d="M0 0 C1.423125 -0.061875 2.84625 -0.12375 4.3125 -0.1875 C5.51326172 -0.23970703 5.51326172 -0.23970703 6.73828125 -0.29296875 C9 0 9 0 10.8125 1.3125 C12 3 12 3 11.6875 6.1875 C11.460625 7.115625 11.23375 8.04375 11 9 C10.34 9 9.68 9 9 9 C9.515625 9.78375 10.03125 10.5675 10.5625 11.375 C11.036875 12.24125 11.51125 13.1075 12 14 C11.67 14.66 11.34 15.32 11 16 C10.46375 15.195625 9.9275 14.39125 9.375 13.5625 C6.56894631 10.53491576 5.03174806 10.27489191 1 10 C1 11.98 1 13.96 1 16 C0.67 16 0.34 16 0 16 C0 10.72 0 5.44 0 0 Z M1 1 C1 3.64 1 6.28 1 9 C5.65052872 9.26932521 5.65052872 9.26932521 10 8 C10 6.02 10 4.04 10 2 C7.04335481 0.5216774 4.25770263 0.93967217 1 1 Z " fill="#000000" transform="translate(148,191)"/>
<path d="M0 0 C1.423125 -0.061875 2.84625 -0.12375 4.3125 -0.1875 C5.51326172 -0.23970703 5.51326172 -0.23970703 6.73828125 -0.29296875 C9 0 9 0 10.8125 1.3125 C12 3 12 3 11.6875 6.1875 C11.460625 7.115625 11.23375 8.04375 11 9 C10.34 9 9.68 9 9 9 C9.515625 9.78375 10.03125 10.5675 10.5625 11.375 C11.036875 12.24125 11.51125 13.1075 12 14 C11.67 14.66 11.34 15.32 11 16 C10.46375 15.195625 9.9275 14.39125 9.375 13.5625 C6.56894631 10.53491576 5.03174806 10.27489191 1 10 C1 11.98 1 13.96 1 16 C0.67 16 0.34 16 0 16 C0 10.72 0 5.44 0 0 Z M1 1 C1 3.64 1 6.28 1 9 C5.65052872 9.26932521 5.65052872 9.26932521 10 8 C10 6.02 10 4.04 10 2 C7.04335481 0.5216774 4.25770263 0.93967217 1 1 Z " fill="#000000" transform="translate(78,191)"/>
<path d="M0 0 C3.3 0 6.6 0 10 0 C10 0.33 10 0.66 10 1 C7.03 1 4.06 1 1 1 C1 2.98 1 4.96 1 7 C3.64 7 6.28 7 9 7 C9 7.33 9 7.66 9 8 C6.36 8 3.72 8 1 8 C1 9.98 1 11.96 1 14 C4.3 14 7.6 14 11 14 C11 14.66 11 15.32 11 16 C7.37 16 3.74 16 0 16 C0 10.72 0 5.44 0 0 Z " fill="#000000" transform="translate(253,191)"/>
</svg>
